<svg width="100%" height="100%" viewBox="0 0 24 24" xmlns="http://www.w3.org/2000/svg" preserveAspectRatio="xMidYMid meet" focusable="false" class="tw-h-8 tw-w-8"><path d="M20.0715 10.4185C20.0715 9.3375 19.3794 8.61063 18.7994 8.61063C15.8062 8.61063 12.3828 13.4564 11.8589 16.2521C18.6124 17.5195 20.0715 12.655 20.0715 10.4185Z" fill="var(--color-live)"></path><path d="M4.56302 11.8909C4.7688 11.2572 4.99329 10.3253 4.11404 10.3253C3.76661 10.3526 3.42568 10.4344 3.10384 10.5676L1.42016 11.0894L1.19567 10.3626L8.09874 7.69738C8.86574 7.77193 8.7535 8.46153 8.56642 9.3375L5.72289 22.123C6.50125 22.5918 7.32945 22.9731 8.19227 23.2599C8.03137 22.4119 7.94996 21.5509 7.94908 20.6879C7.94908 14.4256 13.5426 7.69738 19.8283 7.69738C21.9049 7.69738 22.8215 8.83428 22.8215 11.1267C22.8215 14.8729 17.8828 18.6936 11.5409 17.1653C10.6242 21.1352 12.2518 24.024 15.2076 23.4276C18.0056 22.6596 20.4282 20.9051 22.025 18.4907C23.6218 16.0762 24.2839 13.1661 23.8882 10.3017C23.4925 7.43727 22.0659 4.81356 19.8738 2.91861C17.6817 1.02366 14.8734 -0.0135136 11.9712 8.49939e-06C11.1153 -0.00121804 10.262 0.0925488 9.42697 0.279574C9.61237 0.534892 9.74295 0.825547 9.81054 1.1334C9.87814 1.44124 9.8813 1.75967 9.81983 2.06879C9.63275 3.33616 8.67867 4.60352 7.18207 4.60352C5.68547 4.60352 5.18037 3.33616 5.33003 2.06879C5.34491 2.04692 5.35154 2.02051 5.34874 1.99424C3.94039 2.92782 2.74625 4.1477 1.84474 5.57374C0.943243 6.99978 0.354785 8.59971 0.118029 10.2684C-0.118727 11.9371 0.00157624 13.6369 0.471036 15.256C0.940495 16.8751 1.74849 18.3769 2.84193 19.6628" fill="var(--color-live)"></path><path d="M7.18205 4.60352C8.67865 4.60352 9.63273 3.33615 9.8198 2.06879C9.88127 1.75967 9.87811 1.44124 9.81052 1.13339C9.74293 0.825544 9.61235 0.534889 9.42695 0.279572C7.97238 0.593624 6.58933 1.17511 5.34871 1.99424C5.35151 2.02051 5.34489 2.04692 5.33001 2.06879C5.18035 3.33615 5.79769 4.60352 7.18205 4.60352Z" fill="none"></path><path d="M11.5409 17.1653C17.8828 18.6936 22.8215 14.8729 22.8215 11.1267C22.8215 8.83429 21.9049 7.69739 19.8284 7.69739C13.5426 7.69739 7.9491 14.4256 7.9491 20.6879C7.94997 21.5509 8.03139 22.4119 8.19229 23.2599C10.4604 24.0183 12.9056 24.0768 15.2076 23.4276C12.2518 24.024 10.6243 21.1352 11.5409 17.1653ZM18.7994 8.61063C19.3794 8.61063 20.0715 9.33751 20.0715 10.4185C20.0715 12.655 18.6124 17.5195 11.859 16.2521C12.3828 13.4564 15.8062 8.61063 18.7994 8.61063Z" fill="none"></path><path d="M8.09874 7.69739L1.19568 10.3626L1.42017 11.0895L3.10384 10.5676C3.42568 10.4344 3.76661 10.3526 4.11405 10.3253C4.9933 10.3253 4.76881 11.2572 4.56303 11.8909L2.84194 19.6628C3.6669 20.6282 4.63909 21.4584 5.72289 22.123L8.56643 9.3375C8.75351 8.46153 8.86575 7.77194 8.09874 7.69739Z" fill="none"></path></svg>